<mxfile host="app.diagrams.net" agent="Mozilla/5.0 (Windows NT 10.0; Win64; x64) AppleWebKit/537.36 (KHTML, like Gecko) Chrome/139.0.0.0 Safari/537.36" version="28.2.1">
  <diagram name="第 1 页" id="_KsVbUqQZ-v0ALwD6Hyh">
    <mxGraphModel dx="1869" dy="570" grid="1" gridSize="10" guides="1" tooltips="1" connect="1" arrows="1" fold="1" page="1" pageScale="1" pageWidth="827" pageHeight="1169" math="0" shadow="0">
      <root>
        <mxCell id="0" />
        <mxCell id="1" parent="0" />
        <mxCell id="8DVu6u98NFebpymilXGG-2" value="&lt;font face=&quot;Comic Sans MS&quot;&gt;Best Path&lt;/font&gt;" style="rounded=1;whiteSpace=wrap;html=1;labelBackgroundColor=none;fillColor=#F2CC8F;strokeColor=#E07A5F;fontColor=#393C56;align=center;verticalAlign=middle;fontFamily=Helvetica;fontSize=12;" vertex="1" parent="1">
          <mxGeometry x="70" y="30" width="70" height="30" as="geometry" />
        </mxCell>
        <mxCell id="8DVu6u98NFebpymilXGG-3" value="&lt;font face=&quot;Comic Sans MS&quot;&gt;Question&lt;/font&gt;" style="rounded=1;whiteSpace=wrap;html=1;labelBackgroundColor=none;fillColor=#F2CC8F;strokeColor=#E07A5F;fontColor=#393C56;" vertex="1" parent="1">
          <mxGeometry x="-10" y="30" width="70" height="30" as="geometry" />
        </mxCell>
        <mxCell id="8DVu6u98NFebpymilXGG-8" value="" style="group" vertex="1" connectable="0" parent="1">
          <mxGeometry x="30" y="70" width="70" height="230" as="geometry" />
        </mxCell>
        <mxCell id="ms_wc8pi5Gnqf6l3Z3Y6-1" value="&lt;font face=&quot;Comic Sans MS&quot;&gt;INPUT&lt;/font&gt;" style="rounded=1;whiteSpace=wrap;html=1;labelBackgroundColor=none;fillColor=#F2CC8F;strokeColor=#E07A5F;fontColor=#393C56;" parent="8DVu6u98NFebpymilXGG-8" vertex="1">
          <mxGeometry width="70" height="30" as="geometry" />
        </mxCell>
        <mxCell id="ms_wc8pi5Gnqf6l3Z3Y6-2" value="&lt;font face=&quot;Comic Sans MS&quot;&gt;LLM1&lt;/font&gt;" style="rounded=1;whiteSpace=wrap;html=1;labelBackgroundColor=none;fillColor=#F2CC8F;strokeColor=#E07A5F;fontColor=#393C56;" parent="8DVu6u98NFebpymilXGG-8" vertex="1">
          <mxGeometry y="50" width="70" height="30" as="geometry" />
        </mxCell>
        <mxCell id="ms_wc8pi5Gnqf6l3Z3Y6-3" value="&lt;font face=&quot;Comic Sans MS&quot;&gt;LLM2&lt;/font&gt;" style="rounded=1;whiteSpace=wrap;html=1;labelBackgroundColor=none;fillColor=#F2CC8F;strokeColor=#E07A5F;fontColor=#393C56;" parent="8DVu6u98NFebpymilXGG-8" vertex="1">
          <mxGeometry y="100" width="70" height="30" as="geometry" />
        </mxCell>
        <mxCell id="ms_wc8pi5Gnqf6l3Z3Y6-4" value="&lt;font face=&quot;Comic Sans MS&quot;&gt;LLM3&lt;/font&gt;" style="rounded=1;whiteSpace=wrap;html=1;labelBackgroundColor=none;fillColor=#F2CC8F;strokeColor=#E07A5F;fontColor=#393C56;" parent="8DVu6u98NFebpymilXGG-8" vertex="1">
          <mxGeometry y="150" width="70" height="30" as="geometry" />
        </mxCell>
        <mxCell id="ms_wc8pi5Gnqf6l3Z3Y6-5" value="&lt;font face=&quot;Comic Sans MS&quot;&gt;LLM4&lt;/font&gt;" style="rounded=1;whiteSpace=wrap;html=1;labelBackgroundColor=none;fillColor=#F2CC8F;strokeColor=#E07A5F;fontColor=#393C56;" parent="8DVu6u98NFebpymilXGG-8" vertex="1">
          <mxGeometry y="200" width="70" height="30" as="geometry" />
        </mxCell>
        <mxCell id="8DVu6u98NFebpymilXGG-10" value="" style="group" vertex="1" connectable="0" parent="1">
          <mxGeometry x="290" y="70" width="70" height="230" as="geometry" />
        </mxCell>
        <mxCell id="ms_wc8pi5Gnqf6l3Z3Y6-12" value="&lt;font face=&quot;Comic Sans MS&quot;&gt;SOFTMAX&lt;/font&gt;" style="rounded=1;whiteSpace=wrap;html=1;labelBackgroundColor=none;fillColor=#F2CC8F;strokeColor=#E07A5F;fontColor=#393C56;" parent="8DVu6u98NFebpymilXGG-10" vertex="1">
          <mxGeometry width="70" height="30" as="geometry" />
        </mxCell>
        <mxCell id="ms_wc8pi5Gnqf6l3Z3Y6-13" value="&lt;span style=&quot;font-family: &amp;quot;Comic Sans MS&amp;quot;;&quot;&gt;0.12&lt;/span&gt;" style="rounded=1;whiteSpace=wrap;html=1;labelBackgroundColor=none;fillColor=#F2CC8F;strokeColor=#E07A5F;fontColor=#393C56;" parent="8DVu6u98NFebpymilXGG-10" vertex="1">
          <mxGeometry y="50" width="70" height="30" as="geometry" />
        </mxCell>
        <mxCell id="ms_wc8pi5Gnqf6l3Z3Y6-14" value="&lt;font face=&quot;Comic Sans MS&quot;&gt;0.48&lt;/font&gt;" style="rounded=1;whiteSpace=wrap;html=1;labelBackgroundColor=none;fillColor=#F2CC8F;strokeColor=#E07A5F;fontColor=#393C56;" parent="8DVu6u98NFebpymilXGG-10" vertex="1">
          <mxGeometry y="100" width="70" height="30" as="geometry" />
        </mxCell>
        <mxCell id="ms_wc8pi5Gnqf6l3Z3Y6-15" value="&lt;font face=&quot;Comic Sans MS&quot;&gt;0.28&lt;/font&gt;" style="rounded=1;whiteSpace=wrap;html=1;labelBackgroundColor=none;fillColor=#F2CC8F;strokeColor=#E07A5F;fontColor=#393C56;" parent="8DVu6u98NFebpymilXGG-10" vertex="1">
          <mxGeometry y="150" width="70" height="30" as="geometry" />
        </mxCell>
        <mxCell id="ms_wc8pi5Gnqf6l3Z3Y6-16" value="&lt;font face=&quot;Comic Sans MS&quot;&gt;0.12&lt;/font&gt;" style="rounded=1;whiteSpace=wrap;html=1;labelBackgroundColor=none;fillColor=#F2CC8F;strokeColor=#E07A5F;fontColor=#393C56;" parent="8DVu6u98NFebpymilXGG-10" vertex="1">
          <mxGeometry y="200" width="70" height="30" as="geometry" />
        </mxCell>
        <mxCell id="8DVu6u98NFebpymilXGG-11" value="" style="group" vertex="1" connectable="0" parent="1">
          <mxGeometry x="420" y="70" width="100" height="230" as="geometry" />
        </mxCell>
        <mxCell id="ms_wc8pi5Gnqf6l3Z3Y6-17" value="&lt;font face=&quot;Comic Sans MS&quot;&gt;ALLOCATION&lt;/font&gt;" style="rounded=1;whiteSpace=wrap;html=1;labelBackgroundColor=none;fillColor=#F2CC8F;strokeColor=#E07A5F;fontColor=#393C56;" parent="8DVu6u98NFebpymilXGG-11" vertex="1">
          <mxGeometry width="100" height="30" as="geometry" />
        </mxCell>
        <mxCell id="ms_wc8pi5Gnqf6l3Z3Y6-18" value="&lt;span style=&quot;font-family: &amp;quot;Comic Sans MS&amp;quot;;&quot;&gt;2&lt;/span&gt;" style="rounded=1;whiteSpace=wrap;html=1;labelBackgroundColor=none;fillColor=#F2CC8F;strokeColor=#E07A5F;fontColor=#393C56;" parent="8DVu6u98NFebpymilXGG-11" vertex="1">
          <mxGeometry y="50" width="100" height="30" as="geometry" />
        </mxCell>
        <mxCell id="ms_wc8pi5Gnqf6l3Z3Y6-19" value="&lt;font face=&quot;Comic Sans MS&quot;&gt;8&lt;/font&gt;" style="rounded=1;whiteSpace=wrap;html=1;labelBackgroundColor=none;fillColor=#F2CC8F;strokeColor=#E07A5F;fontColor=#393C56;" parent="8DVu6u98NFebpymilXGG-11" vertex="1">
          <mxGeometry y="100" width="100" height="30" as="geometry" />
        </mxCell>
        <mxCell id="ms_wc8pi5Gnqf6l3Z3Y6-20" value="&lt;font face=&quot;Comic Sans MS&quot;&gt;4&lt;/font&gt;" style="rounded=1;whiteSpace=wrap;html=1;labelBackgroundColor=none;fillColor=#F2CC8F;strokeColor=#E07A5F;fontColor=#393C56;" parent="8DVu6u98NFebpymilXGG-11" vertex="1">
          <mxGeometry y="150" width="100" height="30" as="geometry" />
        </mxCell>
        <mxCell id="ms_wc8pi5Gnqf6l3Z3Y6-21" value="&lt;font face=&quot;Comic Sans MS&quot;&gt;2&lt;/font&gt;" style="rounded=1;whiteSpace=wrap;html=1;labelBackgroundColor=none;fillColor=#F2CC8F;strokeColor=#E07A5F;fontColor=#393C56;" parent="8DVu6u98NFebpymilXGG-11" vertex="1">
          <mxGeometry y="200" width="100" height="30" as="geometry" />
        </mxCell>
        <mxCell id="8DVu6u98NFebpymilXGG-12" value="" style="group" vertex="1" connectable="0" parent="1">
          <mxGeometry x="550" y="70" width="330" height="230" as="geometry" />
        </mxCell>
        <mxCell id="ms_wc8pi5Gnqf6l3Z3Y6-23" value="&lt;font face=&quot;Comic Sans MS&quot;&gt;Path UPDATE&lt;/font&gt;" style="rounded=1;whiteSpace=wrap;html=1;labelBackgroundColor=none;fillColor=#F2CC8F;strokeColor=#E07A5F;fontColor=#393C56;" parent="8DVu6u98NFebpymilXGG-12" vertex="1">
          <mxGeometry width="330" height="30" as="geometry" />
        </mxCell>
        <mxCell id="ms_wc8pi5Gnqf6l3Z3Y6-28" value="&lt;span style=&quot;font-family: &amp;quot;Comic Sans MS&amp;quot;;&quot;&gt;Generating 16 New Candidate Paths&lt;/span&gt;" style="rounded=1;whiteSpace=wrap;html=1;labelBackgroundColor=none;fillColor=#F2CC8F;strokeColor=#E07A5F;fontColor=#393C56;" parent="8DVu6u98NFebpymilXGG-12" vertex="1">
          <mxGeometry y="50" width="110" height="180" as="geometry" />
        </mxCell>
        <mxCell id="ms_wc8pi5Gnqf6l3Z3Y6-30" value="&lt;font face=&quot;Comic Sans MS&quot;&gt;Pruing&lt;/font&gt;" style="html=1;shadow=0;dashed=0;align=center;verticalAlign=middle;shape=mxgraph.arrows2.stripedArrow;dy=0.6;dx=40;notch=25;rounded=1;labelBackgroundColor=none;fillColor=#F2CC8F;strokeColor=#E07A5F;fontColor=#393C56;" parent="8DVu6u98NFebpymilXGG-12" vertex="1">
          <mxGeometry x="120" y="100" width="90" height="60" as="geometry" />
        </mxCell>
        <mxCell id="8DVu6u98NFebpymilXGG-7" value="&lt;span style=&quot;font-family: &amp;quot;Comic Sans MS&amp;quot;;&quot;&gt;TOP-4 Best Paths&lt;/span&gt;" style="rounded=1;whiteSpace=wrap;html=1;labelBackgroundColor=none;fillColor=#F2CC8F;strokeColor=#E07A5F;fontColor=#393C56;" vertex="1" parent="8DVu6u98NFebpymilXGG-12">
          <mxGeometry x="220" y="50" width="110" height="180" as="geometry" />
        </mxCell>
        <mxCell id="8DVu6u98NFebpymilXGG-13" value="" style="group" vertex="1" connectable="0" parent="1">
          <mxGeometry x="160" y="70" width="70" height="230" as="geometry" />
        </mxCell>
        <mxCell id="ms_wc8pi5Gnqf6l3Z3Y6-11" value="&lt;font face=&quot;Comic Sans MS&quot;&gt;0.71&lt;/font&gt;" style="rounded=1;whiteSpace=wrap;html=1;labelBackgroundColor=none;fillColor=#F2CC8F;strokeColor=#E07A5F;fontColor=#393C56;flipH=1;flipV=1;" parent="8DVu6u98NFebpymilXGG-13" vertex="1">
          <mxGeometry y="200" width="70" height="30" as="geometry" />
        </mxCell>
        <mxCell id="ms_wc8pi5Gnqf6l3Z3Y6-7" value="&lt;font face=&quot;Comic Sans MS&quot;&gt;PRM&lt;/font&gt;" style="rounded=1;whiteSpace=wrap;html=1;labelBackgroundColor=none;fillColor=#F2CC8F;strokeColor=#E07A5F;fontColor=#393C56;flipH=1;flipV=1;" parent="8DVu6u98NFebpymilXGG-13" vertex="1">
          <mxGeometry width="70" height="30" as="geometry" />
        </mxCell>
        <mxCell id="ms_wc8pi5Gnqf6l3Z3Y6-8" value="&lt;span style=&quot;font-family: &amp;quot;Comic Sans MS&amp;quot;;&quot;&gt;0.68&lt;/span&gt;" style="rounded=1;whiteSpace=wrap;html=1;labelBackgroundColor=none;fillColor=#F2CC8F;strokeColor=#E07A5F;fontColor=#393C56;flipH=1;flipV=1;" parent="8DVu6u98NFebpymilXGG-13" vertex="1">
          <mxGeometry y="50" width="70" height="30" as="geometry" />
        </mxCell>
        <mxCell id="ms_wc8pi5Gnqf6l3Z3Y6-9" value="&lt;font face=&quot;Comic Sans MS&quot;&gt;0.92&lt;/font&gt;" style="rounded=1;whiteSpace=wrap;html=1;labelBackgroundColor=none;fillColor=#F2CC8F;strokeColor=#E07A5F;fontColor=#393C56;flipH=1;flipV=1;" parent="8DVu6u98NFebpymilXGG-13" vertex="1">
          <mxGeometry y="100" width="70" height="30" as="geometry" />
        </mxCell>
        <mxCell id="ms_wc8pi5Gnqf6l3Z3Y6-10" value="&lt;font face=&quot;Comic Sans MS&quot;&gt;0.81&lt;/font&gt;" style="rounded=1;whiteSpace=wrap;html=1;labelBackgroundColor=none;fillColor=#F2CC8F;strokeColor=#E07A5F;fontColor=#393C56;flipH=1;flipV=1;" parent="8DVu6u98NFebpymilXGG-13" vertex="1">
          <mxGeometry y="150" width="70" height="30" as="geometry" />
        </mxCell>
        <mxCell id="8DVu6u98NFebpymilXGG-14" value="&lt;font face=&quot;Comic Sans MS&quot;&gt;OR&lt;/font&gt;" style="text;html=1;align=center;verticalAlign=middle;resizable=0;points=[];autosize=1;strokeColor=none;fillColor=none;fontColor=#393C56;" vertex="1" parent="1">
          <mxGeometry x="45" width="40" height="30" as="geometry" />
        </mxCell>
        <mxCell id="8DVu6u98NFebpymilXGG-26" value="" style="endArrow=classic;html=1;rounded=0;strokeColor=#E07A5F;fontColor=#393C56;curved=1;fillColor=#F2CC8F;" edge="1" parent="1">
          <mxGeometry width="50" height="50" relative="1" as="geometry">
            <mxPoint x="110" y="190" as="sourcePoint" />
            <mxPoint x="150" y="190" as="targetPoint" />
          </mxGeometry>
        </mxCell>
      </root>
    </mxGraphModel>
  </diagram>
</mxfile>
